<svg width="1000" height="1000" viewBox="0 0 1000 1000" fill="none" xmlns="http://www.w3.org/2000/svg">
<path d="M445.333 531.427L205.714 201.713L150.857 402.823L215.238 488.686L452.19 544.783L853.714 218.886V175H577.905L445.333 531.427Z" fill="#06A2ED"/>
<path d="M414.476 524.558L104 469.605V603.933H393.143L414.476 524.558Z" fill="#06A2ED"/>
<path d="M492.571 615L504.381 490.976L882.286 374.584L896 481.054L492.571 615Z" fill="#06A2ED"/>
<path d="M445.333 531.427L205.714 201.713L150.857 402.823L215.238 488.686L452.19 544.783L853.714 218.886V175H577.905L445.333 531.427Z" stroke="black" stroke-width="3"/>
<path d="M414.476 524.558L104 469.605V603.933H393.143L414.476 524.558Z" stroke="black" stroke-width="3"/>
<path d="M492.571 615L504.381 490.976L882.286 374.584L896 481.054L492.571 615Z" stroke="black" stroke-width="3"/>
</svg>
