<svg width="1000" height="1000" viewBox="0 0 1000 1000" fill="none" xmlns="http://www.w3.org/2000/svg">
<path d="M707.544 497.911L586.764 515.495L618.87 353.034L707.544 343.478V497.911Z" fill="#067799"/>
<path d="M396.037 134L288.633 167.639L281.753 244.091L471.334 465.801V174.519L396.037 134Z" fill="#067799"/>
<path d="M917 351.505L672.763 450.893L684.611 375.97L891.391 191.721L917 351.505Z" fill="#067799"/>
<path d="M83 648.521L118.164 583.919L413.619 558.308L492.738 596.151L108.609 733L83 648.521Z" fill="#057696"/>
<path d="M707.544 497.911L586.764 515.495L618.87 353.034L707.544 343.478V497.911Z" stroke="black"/>
<path d="M396.037 134L288.633 167.639L281.753 244.091L471.334 465.801V174.519L396.037 134Z" stroke="black"/>
<path d="M917 351.505L672.763 450.893L684.611 375.97L891.391 191.721L917 351.505Z" stroke="black"/>
<path d="M83 648.521L118.164 583.919L413.619 558.308L492.738 596.151L108.609 733L83 648.521Z" stroke="black"/>
</svg>
