<svg version="1.1" id="Layer_1" xmlns="http://www.w3.org/2000/svg" xmlns:xlink="http://www.w3.org/1999/xlink" x="0px" y="0px" viewBox="0 0 500 500" style="width: 151px;" xml:space="preserve" data-imageid="sad-face-22" imageName="Sad Face" class="illustrations_image">
<style type="text/css">
	.st0_sad-face-22{fill:#FFFFFF;}
	.st1_sad-face-22{fill:#093F68;}
	.st2_sad-face-22{fill:#FFBC0E;}
	.st3_sad-face-22{fill:#68E1FD;}
</style>
<g id="circle_sad-face-22">
	<path class="st0_sad-face-22" d="M427.6,250c0,59.6-29.9,115.3-79.7,148.2c-7.1,4.7-14.6,8.9-22.4,12.6c-5.3,2.5-10.6,4.7-16.1,6.6&#10;&#9;&#9;C271,431,229,431,190.6,417.4c-5.5-1.9-10.9-4.2-16.1-6.6c-7.8-3.6-15.3-7.8-22.4-12.6c-5.9-3.9-11.5-8.1-16.8-12.6&#10;&#9;&#9;c-74.9-63.3-84.2-175.4-20.9-250.2c15.8-18.7,35.2-33.9,57.2-44.6l0,0c43.1-21.1,92.8-24,138-7.9h0.1&#10;&#9;&#9;C380.4,108,427.6,174.9,427.6,250z"/>
	<path class="st1_sad-face-22" d="M250,429.6c-20.5,0-40.8-3.5-60.1-10.3c-5.6-2-11.1-4.2-16.3-6.7c-14.3-6.7-27.6-15.3-39.6-25.5&#10;&#9;&#9;C58.3,323,48.8,209.7,112.9,134c15.9-18.8,35.5-34.2,57.6-45.1l0.1-0.1c43.5-21.4,93.9-24.2,139.6-8h0.1l0,0&#10;&#9;&#9;c93.4,33.4,142.1,136.2,108.8,229.6c-13.1,36.6-37.7,68-70.1,89.5c-7.2,4.8-14.8,9-22.6,12.7c-5.2,2.5-10.7,4.7-16.3,6.7&#10;&#9;&#9;C290.8,426.1,270.5,429.6,250,429.6z M172.7,92.4l-0.2,0.1c-87,42.8-122.8,148-80,234.9c10.7,21.7,25.7,40.9,44.2,56.5&#10;&#9;&#9;c16.2,13.7,34.7,24.3,54.7,31.4c10.8,3.8,21.9,6.6,33.2,8.2c16.9,2.4,34,2.4,50.9,0c11.3-1.6,22.5-4.4,33.2-8.2&#10;&#9;&#9;c5.5-1.9,10.8-4.1,15.9-6.6c7.7-3.6,15.1-7.7,22.1-12.4c80.9-53.4,103.2-162.3,49.7-243.2c-21-31.7-51.7-55.8-87.5-68.6h-0.1&#10;&#9;&#9;C264.3,68.8,215.2,71.6,172.7,92.4L172.7,92.4z"/>
</g>
<g id="character_sad-face-22">
	<rect x="237.1" y="271.5" class="st2_sad-face-22" width="25.6" height="33.5"/>
	<path class="st1_sad-face-22" d="M262.7,307h-25.6c-1.1,0-2.1-0.9-2.1-2.1v-33.5c0-1.1,0.9-2.1,2.1-2.1h25.6c1.1,0,2.1,0.9,2.1,2.1v33.5&#10;&#9;&#9;C264.7,306.1,263.8,307,262.7,307z M239.1,302.9h21.5v-29.4h-21.5V302.9z"/>
	<path class="st3_sad-face-22 targetColor" d="M342.9,359.9l-3,43.2c-11.9,7.9-16.9,9.4-30.6,14.3c-38.4,13.6-80.3,13.6-118.8,0&#10;&#9;&#9;c-13.6-4.9-14.7-3.4-26.6-11.3c0,0-8.6-29-8.9-58.5s33.5-55.2,63.2-55.2h63.3C318.2,292.3,342.9,316.3,342.9,359.9z" style="fill: rgb(104, 225, 253);"/>
	<path class="st1_sad-face-22" d="M250,429.6c-20.5,0-40.8-3.5-60.1-10.3c-3.9-1.4-6.8-2.3-9.2-3c-5.9-1.8-9.2-2.8-17.9-8.6&#10;&#9;&#9;c-0.4-0.3-0.7-0.7-0.8-1.1c-0.1-0.3-8.7-29.6-8.9-59.1c-0.1-12.4,5.6-25.1,16.2-35.8c13.2-13.3,32-21.6,49.1-21.6h63.3&#10;&#9;&#9;c39.1,0,63.3,26.7,63.3,69.7c0,0,0,0.1,0,0.1l-3,43.2c0,0.6-0.4,1.2-0.9,1.6c-11.4,7.6-16.8,9.5-28.6,13.7l-2.4,0.8&#10;&#9;&#9;C290.8,426.2,270.5,429.6,250,429.6z M165.8,404.8c7.7,5.1,10.4,5.9,16.2,7.6c2.4,0.7,5.4,1.6,9.4,3c38,13.4,79.4,13.4,117.4,0&#10;&#9;&#9;l2.4-0.8c11.5-4.1,16.5-5.8,26.9-12.6l2.9-42.1c0-41-22.1-65.5-59.2-65.5h-63.3c-16,0-33.7,7.8-46.1,20.3&#10;&#9;&#9;c-9.8,9.8-15.1,21.5-15,32.8C157.5,373.9,164.5,400.1,165.8,404.8z M342.9,359.9L342.9,359.9z"/>
	<path class="st1_sad-face-22" d="M190.6,419.4c-1.1,0-2.1-0.9-2.1-2.1v-0.2c0-10.5-2.2-24.3-4.3-37.6c-2.1-13.5-4.3-27.4-4.3-38.3&#10;&#9;&#9;c0.1-1.1,1.1-2,2.2-1.9c1,0.1,1.8,0.9,1.9,1.9c0,10.5,2.2,24.3,4.3,37.6s4.3,27.4,4.3,38.3v0.2&#10;&#9;&#9;C192.7,418.5,191.8,419.4,190.6,419.4z"/>
	<path class="st1_sad-face-22" d="M309.4,419.4c-1.1,0-2.1-0.9-2.1-2.1c0-10.8,1.1-24.1,2.2-36.9s2.2-25.9,2.2-36.5c0-1.1,0.9-2.1,2.1-2.1&#10;&#9;&#9;c1.1,0,2.1,0.9,2.1,2.1c0,0,0,0,0,0c0,10.8-1.1,24-2.2,36.9s-2.2,25.9-2.2,36.5C311.4,418.5,310.5,419.4,309.4,419.4z"/>
	<polygon class="st1_sad-face-22" points="250,360.3 229.1,292.3 270.9,292.3 &#9;"/>
	<path class="st1_sad-face-22" d="M250,362.4c-0.9,0-1.7-0.6-2-1.5l-20.9-68c-0.2-0.6-0.1-1.3,0.3-1.8c0.4-0.5,1-0.8,1.7-0.8h41.7&#10;&#9;&#9;c0.7,0,1.3,0.3,1.7,0.8c0.4,0.5,0.5,1.2,0.3,1.8l-20.9,68C251.7,361.8,250.9,362.4,250,362.4z M231.9,294.4l18.1,58.9l18.1-58.9&#10;&#9;&#9;L231.9,294.4z"/>
	<circle class="st2_sad-face-22" cx="250" cy="214.6" r="108.9"/>
	<path class="st1_sad-face-22" d="M250,325.5c-61.3,0-110.9-49.7-110.9-110.9S188.7,103.6,250,103.6s110.9,49.7,110.9,110.9l0,0&#10;&#9;&#9;C360.9,275.8,311.2,325.4,250,325.5z M250,107.8c-59,0-106.8,47.8-106.8,106.8S191,321.4,250,321.4s106.8-47.8,106.8-106.8l0,0&#10;&#9;&#9;C356.7,155.6,309,107.8,250,107.8z"/>
	<ellipse class="st1_sad-face-22" cx="218.9" cy="184.4" rx="14.3" ry="17.6"/>
	<ellipse class="st1_sad-face-22" cx="281.1" cy="184.4" rx="14.3" ry="17.6"/>
	<path class="st1_sad-face-22" d="M322.9,272.3c-1.4,0-2.6-0.9-3-2.2c-6.6-21.8-36-37.7-69.9-37.7s-63.3,15.8-69.9,37.7&#10;&#9;&#9;c-0.5,1.6-2.3,2.5-3.9,1.9c-1.6-0.5-2.4-2.2-2-3.7c7.4-24.4,39.3-42.1,75.9-42.1s68.5,17.7,75.9,42.1c0.5,1.7-0.5,3.4-2.1,3.9&#10;&#9;&#9;C323.4,272.3,323.1,272.3,322.9,272.3L322.9,272.3z"/>
	<path class="st1_sad-face-22" d="M202.7,169.9c-1.7,0-3.1-1.4-3.1-3.1c0-1.5,1.1-2.8,2.7-3.1l32.1-4.5c1.7-0.3,3.3,0.8,3.6,2.4&#10;&#9;&#9;s-0.8,3.3-2.4,3.6c-0.1,0-0.2,0-0.3,0l-32.1,4.5C203,169.9,202.9,169.9,202.7,169.9z"/>
	<path class="st1_sad-face-22" d="M297.3,169.9c-0.1,0-0.3,0-0.4,0l-32.1-4.5c-1.7-0.1-3-1.6-2.8-3.3c0.1-1.7,1.6-3,3.3-2.8c0.1,0,0.2,0,0.3,0&#10;&#9;&#9;l32.1,4.5c1.7,0.2,2.9,1.8,2.6,3.5C300.1,168.8,298.8,170,297.3,169.9L297.3,169.9z"/>
	<path class="st1_sad-face-22" d="M250,429.6c-1.1,0-2.1-0.9-2.1-2.1v-67.2c0-1.1,0.9-2.1,2.1-2.1c1.1,0,2.1,0.9,2.1,2.1c0,0,0,0,0,0v67.2&#10;&#9;&#9;C252.1,428.7,251.1,429.6,250,429.6z"/>
	<path class="st1_sad-face-22" d="M284.2,405.1c-0.4,0-0.8-0.1-1.1-0.3l-13.3-8.7c-0.6-0.4-0.9-1-0.9-1.7v-26.6c0-1.1,0.9-2.1,2.1-2.1h26.6&#10;&#9;&#9;c1.1,0,2.1,0.9,2.1,2.1v26.6c0,0.7-0.4,1.3-0.9,1.7l-13.3,8.7C285,405,284.6,405.2,284.2,405.1z M272.9,393.2l11.3,7.4l11.3-7.4&#10;&#9;&#9;v-23.5h-22.5V393.2z"/>
	<path class="st2_sad-face-22" d="M224.2,425.7c-11.5-1.7-22.7-4.5-33.6-8.3c-5.5-1.9-10.9-4.2-16.1-6.6c9.1-34.5,29.5-78.6,29.5-78.6&#10;&#9;&#9;s-26-19.5-27.8-28.8s0.9-8,0.9-8c8.9,6.3,31.3,19.3,53.4,27.5C235.7,324.9,233.6,384.9,224.2,425.7z"/>
	<path class="st1_sad-face-22" d="M224.3,427.8c-0.1,0-0.2,0-0.3,0c-11.6-1.7-23-4.5-34-8.4c-5.6-2-11.1-4.2-16.3-6.7c-0.9-0.4-1.4-1.4-1.1-2.4&#10;&#9;&#9;c8.1-30.7,25.3-69.3,28.9-77.4c-5.8-4.4-25.6-20.1-27.2-29c-1.1-5.7-0.8-8.6,0.9-9.9c0.8-0.6,2-0.7,2.9-0.3l0.2,0.1&#10;&#9;&#9;c8.8,6.2,30.9,19.1,52.9,27.3c1.4,0.5,5.6,2.1,3.7,38.8c-1.2,23.1-4.4,47.9-8.6,66.3C226,427.1,225.2,427.8,224.3,427.8z&#10;&#9;&#9; M177,409.6c4.6,2.1,9.5,4.1,14.4,5.8c10.2,3.6,20.7,6.3,31.3,8c9.3-42.2,10-93.7,6.9-98.6c-18.1-7-35.5-15.8-51.8-26.4&#10;&#9;&#9;c0.1,1.6,0.2,3.1,0.6,4.6c1.3,7,19.9,22.2,26.9,27.5c0.8,0.6,1,1.6,0.6,2.5C205.7,333.4,186.1,375.9,177,409.6z"/>
	<path class="st2_sad-face-22" d="M325.5,410.7c-5.3,2.5-10.6,4.7-16.1,6.6c-10.9,3.9-22.2,6.7-33.6,8.3c-9.4-40.8-11.5-100.8-6.3-102.8&#10;&#9;&#9;c22.1-8.2,43.3-20.4,52.2-26.7c0,0,3.8-2.1,2,7.2S296,332.1,296,332.1S316.4,376.2,325.5,410.7z"/>
	<path class="st1_sad-face-22" d="M275.7,427.8c-1,0-1.8-0.7-2-1.6c-4.2-18.4-7.5-43.2-8.6-66.3c-1.9-36.8,2.3-38.3,3.7-38.8&#10;&#9;&#9;c22.1-8.2,43-20.3,51.7-26.5l0.2-0.1c1.2-0.7,2.7-0.6,3.8,0.1c1.8,1.3,2.2,4.1,1.3,9.2c-1.6,8.9-21.4,24.6-27.2,29&#10;&#9;&#9;c3.6,8.1,20.9,46.7,28.9,77.4c0.2,1-0.2,2-1.1,2.4c-5.2,2.5-10.7,4.7-16.3,6.7c-11,3.9-22.4,6.7-34,8.4&#10;&#9;&#9;C276,427.7,275.9,427.7,275.7,427.8z M270.5,324.8c-3.1,4.9-2.5,56.4,6.9,98.6c10.7-1.7,21.2-4.3,31.3-8c4.9-1.7,9.7-3.7,14.4-5.8&#10;&#9;&#9;c-9.1-33.6-28.7-76.1-28.9-76.6c-0.4-0.9-0.1-1.9,0.6-2.5c7.1-5.3,25.6-20.5,27-27.5c0.4-1.5,0.5-3,0.4-4.5&#10;&#9;&#9;C312.8,304.8,292.2,316.6,270.5,324.8L270.5,324.8z"/>
</g>
</svg>